<svg xmlns:svg="http://www.w3.org/2000/svg" xmlns="http://www.w3.org/2000/svg" viewBox="0 0 364.73172 215" version="1.1" style="font-family:'Arial';">
<g style="fill:none; stroke:#000000; stroke-width:0.5; stroke-linecap:square; stroke-linejoin:miter;">
<path d="m 12.40595,202.5 h 10" />
<path d="m 12.40595,192.5 h 10" />
<path d="m 12.40595,182.5 h 10" />
<path d="m 12.40595,172.5 h 10" />
<path d="m 12.40595,162.5 h 10" />
<path d="m 12.40595,152.5 h 10" />
<path d="m 12.40595,142.5 h 10" />
<path d="m 12.40595,132.5 h 10" />
<path d="m 12.40595,122.5 h 10" />
<path d="m 12.40595,112.5 h 10" />
<path d="m 12.40595,102.5 h 10" />
<path d="m 12.40595,92.5 h 10" />
<path d="m 12.40595,82.5 h 10" />
<path d="m 12.40595,72.5 h 10" />
<path d="m 12.40595,62.5 h 10" />
<path d="m 12.40595,52.5 h 10" />
<path d="m 12.40595,42.5 h 10" />
<path d="m 12.40595,32.5 h 10" />
<path d="m 12.40595,22.5 h 10" />
<path d="m 12.40595,12.5 h 10" />
<path d="m 102.40595,202.5 h 10"/>
<path d="m 102.40595,192.5 h 10" />
<path d="m 102.40595,182.5 h 10" />
<path d="m 102.40595,172.5 h 10" />
<path d="m 102.40595,162.5 h 10" />
<path d="m 102.40595,152.5 h 10" />
<path d="m 102.40595,142.5 h 10" />
<path d="m 102.40595,132.5 h 10" />
<path d="m 102.40595,122.5 h 10" />
<path d="m 102.40595,112.5 h 10" />
<path d="m 102.40595,102.5 h 10" />
<path d="m 102.40595,92.5 h 10" />
<path d="m 102.40595,82.5 h 10" />
<path d="m 102.40595,72.5 h 10" />
<path d="m 102.40595,62.5 h 10" />
<path d="m 102.40595,52.5 h 10" />
<path d="m 102.40595,42.5 h 10" />
<path d="m 102.40595,32.5 h 10" />
<path d="m 102.40595,22.5 h 10" />
<path d="m 102.40595,12.5 h 10" />
<path d="m 172.40595,158.5 h 10" />
<path d="m 172.40595,148.5 h 10" />
<path d="m 172.40595,138.5 h 10" />
<path d="m 172.40595,128.5 h 10" />
<path d="m 172.40595,118.5 h 10" />
<path d="m 172.40595,108.5 h 10" />
<path d="m 172.40595,98.5 h 10" />
<path d="m 172.40595,88.5 h 10" />
<path d="m 172.40595,78.5 h 10" />
<path d="m 172.40595,68.5 h 10" />
<path d="m 172.40595,58.5 h 10" />
<path d="m 312.40595,198.5 v -10" />
<path d="m 302.40595,198.5 v -10" />
<path d="m 292.40595,198.5 v -10" />
<path d="m 282.40595,198.5 v -10" />
<path d="m 272.40595,198.5 v -10" />
<path d="m 262.40595,198.5 v -10" />
<path d="m 252.40595,198.5 v -10" />
<path d="m 242.40595,198.5 v -10" />
<path d="m 232.40595,198.5 v -10" />
<path d="m 222.40595,198.5 v -10" />
<path d="m 212.40595,198.5 v -10" />
<path d="m 312.40595,28.5 v -10" />
<path d="m 302.40595,28.5 v -10" />
<path d="m 292.40595,28.5 v -10" />
<path d="m 282.40595,28.5 v -10" />
<path d="m 272.40595,28.5 v -10" />
<path d="m 262.40595,28.5 v -10" />
<path d="m 252.40595,28.5 v -10" />
<path d="m 242.40595,28.5 v -10" />
<path d="m 232.40595,28.5 v -10" />
<path d="m 222.40595,28.5 v -10" />
<path d="m 212.40595,28.5 v -10" />
<path d="m 342.40595,158.5 h 10" />
<path d="m 342.40595,148.5 h 10" />
<path d="m 342.40595,138.5 h 10" />
<path d="m 342.40595,128.5 h 10" />
<path d="m 342.40595,118.5 h 10" />
<path d="m 342.40595,108.5 h 10" />
<path d="m 342.40595,98.5 h 10" />
<path d="m 342.40595,88.5 h 10" />
<path d="m 342.40595,78.5 h 10" />
<path d="m 342.40595,68.5 h 10"/>
<path d="m 342.40595,58.5 h 10" />
<rect y="2.5" x="22.405951" height="210" width="80" style="stroke-width:1;" />
<path d="m 72.40595,2.5 a 10,10 0 0 1 -5,8.660254 10,10 0 0 1 -10,0 10,10 0 0 1 -5,-8.660254" style="stroke-width:1;" />
<path d="m 182.40595,34.5 6,-6 h 154 v 160 h -160 z" style="stroke-width:1;" />
</g>
<g style="font-size:7.76px; fill:#000000; stroke:none;">
<g style="text-anchor:end;">
<text y="14.5" x="10.40595">1</text>
<text y="24.5" x="10.40595">2</text>
<text y="34.5" x="10.40595">3</text>
<text y="44.5" x="10.40595">4</text>
<text y="54.5" x="10.40595">5</text>
<text y="64.5" x="10.40595">6</text>
<text y="74.5" x="10.40595">7</text>
<text y="84.5" x="10.40595">8</text>
<text y="94.5" x="10.40595">9</text>
<text y="104.5" x="10.40595">10</text>
<text y="114.5" x="10.40595">11</text>
<text y="124.5" x="10.40595">12</text>
<text y="134.5" x="10.40595">13</text>
<text y="144.5" x="10.40595">14</text>
<text y="154.5" x="10.40595">15</text>
<text y="164.5" x="10.40595">16</text>
<text y="174.5" x="10.40595">17</text>
<text y="184.5" x="10.40595">18</text>
<text y="194.5" x="10.40595">19</text>
<text y="204.5" x="10.40595">20</text>
</g>
<g style="text-anchor:start;">
<text y="204.5" x="114.40595">21</text>
<text y="194.5" x="114.40595">22</text>
<text y="184.5" x="114.40595">23</text>
<text y="174.5" x="114.40595">24</text>
<text y="164.5" x="114.40595">25</text>
<text y="154.5" x="114.40595">26</text>
<text y="144.5" x="114.40595">27</text>
<text y="134.5" x="114.40595">28</text>
<text y="124.5" x="114.40595">29</text>
<text y="114.5" x="114.40595">30</text>
<text y="104.5" x="114.40595">31</text>
<text y="94.5" x="114.40595">32</text>
<text y="84.5" x="114.40595">33</text>
<text y="74.5" x="114.40595">34</text>
<text y="64.5" x="114.40595">35</text>
<text y="54.5" x="114.40595">36</text>
<text y="44.5" x="114.40595">37</text>
<text y="34.5" x="114.40595">38</text>
<text y="24.5" x="114.40595">39</text>
<text y="14.5" x="114.40595">40</text>
</g>
</g>
<g style="font-size:8.47px; fill:#000000; stroke:none;">
<g style="text-anchor:start;">
<text y="15.530304" x="26.405951">GND</text>
<text y="25.491028" x="26.405951">PA0</text>
<text y="35.542709" x="26.405951">PA1</text>
<text y="45.542709" x="26.405951">PA2</text>
<text y="55.488968" x="26.405951">PA3</text>
<text y="65.530304" x="26.405951">PA4</text>
<text y="75.478622" x="26.405951">PA5</text>
<text y="85.491028" x="26.405951">PA6</text>
<text y="95.530304" x="26.405951">PA7</text>
<text y="105.49103" x="26.405951">PB0</text>
<text y="115.54271" x="26.405951">PB1</text>
<text y="125.54271" x="26.405951">PB2</text>
<text y="135.48897" x="26.405951">PB3</text>
<text y="145.5303" x="26.405951">PB4</text>
<text y="155.47862" x="26.405951">PB5</text>
<text y="165.49103" x="26.405951">PB6</text>
<text y="175.5303" x="26.405951">PB7</text>
<text y="185.5303" x="26.405951">PC</text>
<text y="195.53238" x="26.405951">TOD</text>
<text y="205.5303" x="26.405951">VCC</text>
</g>
<g style="text-anchor:end;">
<text y="205.34839" x="98.405952">IRQ</text>
<text y="195.5303" x="98.405952">R/W</text>
<text y="175.5303" x="98.405952">FLAG</text>
<text y="165.49103" x="98.405952">02</text>
<text y="185.5303" x="98.405952">CS</text>
<text y="155.5303" x="98.405952">D7</text>
<text y="145.49103" x="98.405952">D6</text>
<text y="135.47862" x="98.405952">D5</text>
<text y="125.5303" x="98.405952">D4</text>
<text y="115.48897" x="98.405952">D3</text>
<text y="105.54271" x="98.405952">D2</text>
<text y="95.542709" x="98.405952">D1</text>
<text y="85.491028" x="98.405952">D0</text>
<text y="75.530304" x="98.405952">RST</text>
<text y="65.488968" x="98.405952">A3</text>
<text y="55.542709" x="98.405952">A2</text>
<text y="45.542709" x="98.405952">A1</text>
<text y="35.491043" x="98.405952">A0</text>
<text y="25.530296" x="98.405952">SP</text>
<text y="15.530304" x="98.405952">CNT</text>
</g>
</g>
<g style="font-size:7.76px; fill:#000000; stroke:none;">
<g style="text-anchor: start;">
<text transform="rotate(-90)" y="265.1951" x="-16.5">1</text>
<text transform="rotate(-90)" y="255.1951" x="-16.5">2</text>
<text transform="rotate(-90)" y="245.14584" x="-16.5">3</text>
<text transform="rotate(-90)" y="235.18372" x="-16.5">4</text>
<text transform="rotate(-90)" y="225.09845" x="-16.5">5</text>
<text transform="rotate(-90)" y="215.14774" x="-16.5">6</text>
<text transform="rotate(-90)" y="275.18372" x="-16.5">44</text>
<text transform="rotate(-90)" y="285.14584" x="-16.5">43</text>
<text transform="rotate(-90)" y="295.1951" x="-16.5">42</text>
<text transform="rotate(-90)" y="305.1951" x="-16.5">41</text>
<text transform="rotate(-90)" y="315.14774" x="-16.5">40</text>
<text y="61.239883" x="354.40594">39</text>
<text y="71.239883" x="354.40594">38</text>
<text y="81.239883" x="354.40594">37</text>
<text y="91.239883" x="354.40594">36</text>
<text y="101.23988" x="354.40594">35</text>
<text y="111.23988" x="354.40594">34</text>
<text y="121.23988" x="354.40594">33</text>
<text y="131.23988" x="354.40594">32</text>
<text y="141.23988" x="354.40594">31</text>
<text y="151.23988" x="354.40594">30</text>
<text y="161.24178" x="354.40594">29</text>
</g>
<g style="text-anchor: end;">
<text transform="rotate(-90)" y="315.14774" x="-200.5">28</text>
<text transform="rotate(-90)" y="305.1951" x="-200.5">27</text>
<text transform="rotate(-90)" y="295.14774" x="-200.5">26</text>
<text transform="rotate(-90)" y="285.14774" x="-200.5">25</text>
<text transform="rotate(-90)" y="275.1951" x="-200.5">24</text>
<text transform="rotate(-90)" y="265.14584" x="-200.5">23</text>
<text transform="rotate(-90)" y="255.1951" x="-200.5">22</text>
<text transform="rotate(-90)" y="245.1951" x="-200.5">21</text>
<text transform="rotate(-90)" y="235.14774" x="-200.5">20</text>
<text transform="rotate(-90)" y="225.14774" x="-200.5">19</text>
<text transform="rotate(-90)" y="215.14774" x="-200.5">18</text>
<text y="161.28915" x="169.87532">17</text>
<text y="151.24178" x="170.40594">16</text>
<text y="141.24178" x="170.40594">15</text>
<text y="131.28915" x="170.40594">14</text>
<text y="121.23988" x="170.40594">13</text>
<text y="111.28915" x="170.40594">12</text>
<text y="101.28915" x="170.40594">11</text>
<text y="91.241776" x="170.49113">10</text>
<text y="81.241776" x="170.40594">9</text>
<text y="71.241776" x="170.40594">8</text>
<text y="61.241776" x="170.40594">7</text>
</g>
</g>
<g style="font-size:8.47px; fill:#000000; stroke:none;">
<g style="text-anchor:start;">
<text y="61.488968" x="186.40594">PA3</text>
<text y="71.530304" x="186.40594">PA4</text>
<text y="81.478622" x="186.40594">PA5</text>
<text y="91.491028" x="186.40594">PA6</text>
<text y="101.5303" x="186.40594">PA7</text>
<text y="111.49103" x="186.40594">PB0</text>
<text y="121.54271" x="186.40594">PB1</text>
<text y="131.54271" x="186.40594">PB2</text>
<text y="141.48897" x="186.40594">PB3</text>
<text y="151.5303" x="186.40594">PB4</text>
<text y="161.47862" x="186.40594">PB5</text>
<text transform="rotate(-90)" y="215.39697" x="-184.5">PB6</text>
<text transform="rotate(-90)" y="225.43625" x="-184.5">PB7</text>
<text transform="rotate(-90)" y="235.43625" x="-184.5">PC</text>
<text transform="rotate(-90)" y="245.43625" x="-184.5">TOD</text>
<text transform="rotate(-90)" y="255.43625" x="-184.5">VCC</text>
<text transform="rotate(-90)" y="265.43625" x="-184.5">IRQ</text>
<text transform="rotate(-90)" y="275.43625" x="-184.5">R/W</text>
<text transform="rotate(-90)" y="285.43625" x="-184.5">CS</text>
<text transform="rotate(-90)" y="295.43625" x="-184.5">FLAG</text>
<text transform="rotate(-90)" y="305.43625" x="-184.5">02</text>
<text transform="rotate(-90)" y="315.43625" x="-184.5">NC</text>
</g>
<g style="text-anchor:end;">
<text transform="rotate(-90)" y="255.39697" x="-32.5">PA0</text>
<text transform="rotate(-90)" y="245.44864" x="-32.5">PA1</text>
<text transform="rotate(-90)" y="235.44864" x="-32.5">PA2</text>
<text transform="rotate(-90)" y="315.39697" x="-32.5">NC</text>
<text transform="rotate(-90)" y="305.39697" x="-32.5">A1</text>
<text transform="rotate(-90)" y="295.39697" x="-32.5">A0</text>
<text transform="rotate(-90)" y="285.39697" x="-32.5">SP</text>
<text transform="rotate(-90)" y="275.39697" x="-32.5">CNT</text>
<text transform="rotate(-90)" y="265.39697" x="-32.5">GND</text>
<text transform="rotate(-90)" y="225.44864" x="-32.5">NC</text>
<text transform="rotate(-90)" y="215.44864" x="-32.5">NC</text>
<text y="161.49103" x="338.40594">D7</text>
<text y="151.49103" x="338.40594">D6</text>
<text y="141.49103" x="338.40594">D5</text>
<text y="131.49103" x="338.40594">D4</text>
<text y="121.49103" x="338.40594">D3</text>
<text y="111.49103" x="338.40594">D2</text>
<text y="101.49103" x="338.40594">D1</text>
<text y="91.491028" x="338.40594">D0</text>
<text y="81.491028" x="338.40594">RST</text>
<text y="71.491028" x="338.40594">A3</text>
<text y="61.491028" x="338.40594">A2</text>
</g></g></svg>