<svg width="2440" height="3000" xmlns="http://www.w3.org/2000/svg" xmlns:svg="http://www.w3.org/2000/svg" xmlns:xlink="http://www.w3.org/1999/xlink">
	
	<text x="140" y="8" fill="black" transform="rotate(90 14,1)" font-size="16">https://myoldcomputer.nl V1.0</text>
	<text x="2100" y="8" fill="black" transform="rotate(90 14,1)" font-size="16">https://myoldcomputer.nl V1.0</text>
	
	<!-- header -->
	<line x1="100" y1="0" x2="100" y2="1500" stroke="black" />
	<line x1="350" y1="0" x2="350" y2="1500" stroke="black" />
	<line x1="600" y1="0" x2="600" y2="1500" stroke="black" />
	<line x1="900" y1="0" x2="900" y2="1500" stroke="black" />
	<line x1="1400" y1="0" x2="1400" y2="1500" stroke="black" />
	<line x1="1700" y1="0" x2="1700" y2="1500" stroke="black" />
	<line x1="1930" y1="0" x2="1930" y2="1500" stroke="black" />
	
	<line x1="100" y1="2000" x2="100" y2="3000" stroke="black" />
	<line x1="900" y1="2000" x2="900" y2="3000" stroke="black" />
	<line x1="1700" y1="2000" x2="1700" y2="3000" stroke="black" />
	
	
	
	<text x="100" 	y="100" 	fill="black"  	font-size="64">Power</text>
	<text x="350" 	y="100" 	fill="black"  	font-size="64">Joystick</text>
	<text x="600" 	y="100" 	fill="black"  	font-size="64">Userport</text>
	<text x="900" 	y="100" 	fill="black"  	font-size="64">Audio/Video</text>
	<text x="1400" 	y="100" 	fill="black"  	font-size="64">Serial</text>
	<text x="1700"	y="100" 	fill="black"  	font-size="64">Tape</text>
	<text x="1930" 	y="100" 	fill="black"  	font-size="64">Expansion</text>
	
	<line x1="0" y1="115" x2="2500" y2="115" stroke="black" />
	
	<!-- C64 -->
	<text x="170" y="-20" fill="black" transform="rotate(90 14,1)" font-size="64">C64</text>
		
	<image xlink:href="CONNECTORS/Commodore 8-bit/C64_Power.svg" 			height="800" width="200" 	y="-180" x="100"/>
	<image xlink:href="CONNECTORS/Commodore 8-bit/C64-Joystick.svg" 		height="800" width="200" 	y="-180" x="350"/>
	<image xlink:href="CONNECTORS/Commodore 8-bit/C64_Userport.svg" 		height="800" width="200" 	y="-180" x="600"/>
	<image xlink:href="CONNECTORS/Commodore 8-bit/C64_Audio_Video.svg" 		height="800" width="500" 	y="-180" x="900"/>
	<image xlink:href="CONNECTORS/Commodore 8-bit/serial.svg" 				height="200" width="270" 	y="120" x="1410"/>
	<image xlink:href="CONNECTORS/Commodore 8-bit/C64_Datasette.svg" 		height="200" width="250" 	y="120" x="1650"/>
	<image xlink:href="CONNECTORS/Commodore 8-bit/C64_Cartridge_port.svg" 	height="470" width="500" 	y="100" x="1860"/>

	<line x1="0" y1="335" x2="1930" y2="335" stroke="black" />
	
	<!-- C128 -->
	<text x="370" y="-20" fill="black" transform="rotate(90 14,1)" font-size="64">C128</text>
		
	<image xlink:href="CONNECTORS/Commodore 8-bit/C128_Power.svg" 			height="100" width="200" 	y="370" x="100"/>
	<image xlink:href="CONNECTORS/Commodore 8-bit/C64-Joystick.svg" 		height="200" width="200" 	y="330" x="350"/>
	<image xlink:href="CONNECTORS/Commodore 8-bit/C64_Userport.svg" 		height="200" width="200" 	y="330" x="600"/>
	<image xlink:href="CONNECTORS/Commodore 8-bit/C128_Audio_Video.svg" 	height="300" width="300" 	y="290" x="900"/>
	<image xlink:href="CONNECTORS/Commodore 8-bit/C128-RGBI.svg" 			height="300" width="200" 	y="280" x="1200"/>
	<image xlink:href="CONNECTORS/Commodore 8-bit/serial.svg" 				height="200" width="270" 	y="340" x="1410"/>
	<image xlink:href="CONNECTORS/Commodore 8-bit/C64_Datasette.svg" 		height="200" width="250" 	y="350" x="1650"/>
	
	<line x1="0" y1="575" x2="2500" y2="575" stroke="black" />

	<!-- VIC20 -->
	<text x="590" y="-20" fill="black" transform="rotate(90 14,1)" font-size="64">VIC20</text>
		
	<image xlink:href="CONNECTORS/Commodore 8-bit/VIC20_Power.svg" 			height="800" width="250" 	y="280" x="100"/>
	<image xlink:href="CONNECTORS/Commodore 8-bit/vic20-Joystick.svg" 		height="800" width="200" 	y="280" x="350"/>
	<image xlink:href="CONNECTORS/Commodore 8-bit/vic20_Userport.svg" 		height="800" width="200" 	y="280" x="600"/>
	<image xlink:href="CONNECTORS/Commodore 8-bit/VIC20_Audio_Video.svg" 	height="800" width="300" 	y="280" x="900"/>
	<image xlink:href="CONNECTORS/Commodore 8-bit/serial.svg" 				height="200" width="270" 	y="580" x="1410"/>
	<image xlink:href="CONNECTORS/Commodore 8-bit/C64_Datasette.svg" 		height="200" width="250" 	y="580" x="1650"/>
	<image xlink:href="CONNECTORS/Commodore 8-bit/vic20_Cartridge_port.svg" height="470" width="500" 	y="560" x="1860"/>

	<line x1="0" y1="1045" x2="2500" y2="1045" stroke="black" />

	<!-- C16 -->
	<text x="1080" y="-20" fill="black" transform="rotate(90 14,1)" font-size="64">C(1)16</text>
		
	<image xlink:href="CONNECTORS/Commodore 8-bit/C16_Power_Socket.svg" 	height="170" width="170" 	y="1140" x="178"/>
	<text x="145" 	y="1200" 	fill="black"  	font-size="14">center negative</text>
	<image xlink:href="CONNECTORS/Commodore 8-bit/C16_Joystick.svg" 		height="800" width="250" 	y="750" x="350"/>
	<image xlink:href="CONNECTORS/Commodore 8-bit/C16_Plus4_Audio_Video.svg" height="800" width="300" 	y="750" x="900"/>
	<image xlink:href="CONNECTORS/Commodore 8-bit/serial.svg" 				height="200" width="270" 	y="1050" x="1410"/>
	<image xlink:href="CONNECTORS/Commodore 8-bit/C16_Datasette.svg" 		height="200" width="200" 	y="1020" x="1700"/>
	<image xlink:href="CONNECTORS/Commodore 8-bit/C16_Cartridge_port.svg" 	height="450" width="450" 	y="1030" x="1930"/>

	<line x1="0" y1="1250" x2="1930" y2="1250" stroke="black" />

	<!-- P4 -->
	<text x="1300" y="-20" fill="black" transform="rotate(90 14,1)" font-size="64">Plus/4</text>
		
	<image xlink:href="CONNECTORS/Commodore 8-bit/P4_Power1.svg" 			height="200" width="200" 	y="1230" x="100"/>
	<image xlink:href="CONNECTORS/Commodore 8-bit/P4_Power2.svg" 			height="100" width="150" 	y="1370" x="200"/>
	<image xlink:href="CONNECTORS/Commodore 8-bit/C16_Joystick.svg" 		height="800" width="250" 	y="980" x="350"/>
	<image xlink:href="CONNECTORS/Commodore 8-bit/p4_Userport.svg" 			eight="800" width="250" 	y="1270" x="610"/>
	<image xlink:href="CONNECTORS/Commodore 8-bit/C16_Plus4_Audio_Video.svg" height="800" width="300" 	y="980" x="900"/>
	<image xlink:href="CONNECTORS/Commodore 8-bit/serial.svg" 				height="200" width="270" 	y="1280" x="1410"/>
	<image xlink:href="CONNECTORS/Commodore 8-bit/C16_Datasette.svg" 		height="200" width="200" 	y="1250" x="1700"/>

	<line x1="0" y1="1500" x2="2500" y2="1500" stroke="black" />

	<!-- keyboards -->
	<!--<text x="2100" y="-20" fill="black" transform="rotate(90 14,1)" font-size="64">Keyboards</text>-->
	<text x="2084" y="-35" fill="black" transform="rotate(90)" font-size="64">Keyboards</text>
		
	<text x="2050" y="-100" fill="black" transform="rotate(90 14,1)" font-size="24">SX64</text>
	<image xlink:href="CONNECTORS/Commodore 8-bit/C64SX-Keyboard.svg" 		height="700" width="700" 	y="1855" x="130"/>
	
	<text x="2050" y="-900" fill="black" transform="rotate(90 14,1)" font-size="24">C128</text>
	<image xlink:href="CONNECTORS/Commodore 8-bit/C128D(CR)-Keyboard.svg" 	height="700" width="700" 	y="1900" x="930"/>

	<line x1="0" y1="2500" x2="2500" y2="2500" stroke="black" />

	<text x="2550" y="-100" fill="black" transform="rotate(90 14,1)" font-size="24">C64 Vic20</text>
	<image xlink:href="CONNECTORS/Commodore 8-bit/C64_Vic20-Keyboard.svg" 		height="700" width="700" 	y="2355" x="130"/>

	<text x="2550" y="-900" fill="black" transform="rotate(90 14,1)" font-size="24">C16</text>
	<image xlink:href="CONNECTORS/Commodore 8-bit/C16-Keyboard.svg" 		height="700" width="700" 	y="2355" x="930"/>

	<text x="2550" y="-1700" fill="black" transform="rotate(90 14,1)" font-size="24">Plus4 C116</text>
	<image xlink:href="CONNECTORS/Commodore 8-bit/P4_C116-Keyboard.svg" 		height="700" width="700" 	y="2350" x="1730"/>

</svg>

