<?xml version="1.0" encoding="UTF-8" standalone="no"?>
<!-- Created with Inkscape (http://www.inkscape.org/) -->
<svg
   xmlns:svg="http://www.w3.org/2000/svg"
   xmlns="http://www.w3.org/2000/svg"
   version="1.0"
   width="300"
   height="300"
   viewBox="0 0 300 300"
   id="Layer_1"
   xml:space="preserve"><defs
   id="defs2584" />


	<g
   id="g2241">
		<circle
   cx="66.588997"
   cy="141.351"
   r="2.2409999"
   style="fill:none;stroke:#000000"
   id="circle2243" />
		<circle
   cx="77.617996"
   cy="141.351"
   r="2.2409999"
   style="fill:none;stroke:#000000"
   id="circle2245" />
		<circle
   cx="88.643997"
   cy="141.351"
   r="2.2379999"
   style="fill:none;stroke:#000000"
   id="circle2247" />
		<path
   d="M 99.668,139.11 C 100.906,139.11 101.91,140.114 101.91,141.351 C 101.91,142.588 100.906,143.591 99.668,143.591 C 98.435,143.591 97.431,142.588 97.431,141.351 C 97.431,140.114 98.435,139.11 99.668,139.11 z "
   style="fill:none;stroke:#000000"
   id="path2249" />
		<circle
   cx="110.697"
   cy="141.351"
   r="2.2409999"
   style="fill:none;stroke:#000000"
   id="circle2251" />
		<circle
   cx="72.102997"
   cy="152.491"
   r="2.2390001"
   style="fill:none;stroke:#000000"
   id="circle2253" />
		<circle
   cx="83.130997"
   cy="152.491"
   r="2.2390001"
   style="fill:none;stroke:#000000"
   id="circle2255" />
		<path
   d="M 94.156,150.252 C 95.393,150.252 96.394,151.255 96.394,152.489 C 96.394,153.726 95.393,154.73 94.156,154.73 C 92.918,154.73 91.914,153.726 91.914,152.489 C 91.914,151.255 92.918,150.252 94.156,150.252 z "
   style="fill:none;stroke:#000000"
   id="path2257" />
		<circle
   cx="105.185"
   cy="152.491"
   r="2.2390001"
   style="fill:none;stroke:#000000"
   id="circle2259" />
	</g>
	<path
   d="M 63.644,130.222 C 58.035,130.222 54.244,134.74 55.219,140.264 L 57.573,153.573 C 58.549,159.098 63.939,163.622 69.548,163.622 L 107.739,163.622 C 113.347,163.622 118.735,159.099 119.714,153.573 L 122.068,140.264 C 123.043,134.74 119.255,130.222 113.643,130.222 L 63.644,130.222 z "
   style="fill:none;stroke:#000000"
   id="path2261" />
	<g
   id="g2263">
	</g>
</g>

</svg>