<?xml version="1.0" encoding="UTF-8"?>
<svg xmlns="http://www.w3.org/2000/svg" width="240" height="110">

<!-- shield -->
<g transform="translate(5 5)">
<path fill="none" stroke="#000" d="M 0 20 c 0 -20 0 -20 20 -20 l 60 0 M 80 0c 20 0 20 0 20 20 l 0 60 M 0 80 c 0 20 0 20 20 20 l 60 0 c 20 0 20 0 20 -20 M 0 20 l 0 60 M 45 5 l 10 0 l 0 -3 l -10 0" style="stroke-width:4" />
<!-- pin 1 -->
<circle cx="27" cy="75" r="6" stroke="black" stroke-width="3" fill="none" />
<text x="25" y="65"  style="font-size:10px;font-style:normal;font-weight:normal;fill:#000000;fill-opacity:1;stroke:none;stroke-width:1px" >
1</text>
<!-- pin 2 -->
<circle cx="27" cy="25" r="6" stroke="black" stroke-width="3" fill="none" />
<text x="25" y="15"  style="font-size:10px;font-style:normal;font-weight:normal;fill:#000000;fill-opacity:1;stroke:none;stroke-width:1px" >
4</text>
<!-- pin 3 -->
<circle cx="72" cy="25" r="6" stroke="black" stroke-width="3" fill="none" />
<text x="70" y="15"  style="font-size:10px;font-style:normal;font-weight:normal;fill:#000000;fill-opacity:1;stroke:none;stroke-width:1px" >
3</text>
<!-- pin 4 -->
<circle cx="72" cy="75" r="6" stroke="black" stroke-width="3" fill="none" />
<text x="70" y="65"  style="font-size:10px;font-style:normal;font-weight:normal;fill:#000000;fill-opacity:1;stroke:none;stroke-width:1px" >
2</text>
</g>
<g transform="translate(120 23)">
<g transform="scale(1.3)">
	<text x="0" y="0"  style="font-size:12px;font-style:normal;font-weight:normal;fill:#000000;fill-opacity:1;stroke:none;stroke-width:1px" >
	1.</text>
	<text x="0" y="15"  style="font-size:12px;font-style:normal;font-weight:normal;fill:#000000;fill-opacity:1;stroke:none;stroke-width:1px" >
	2.</text>
	<text x="0" y="30"  style="font-size:12px;font-style:normal;font-weight:normal;fill:#000000;fill-opacity:1;stroke:none;stroke-width:1px" >
	3.</text>
	<text x="0" y="45"  style="font-size:12px;font-style:normal;font-weight:normal;fill:#000000;fill-opacity:1;stroke:none;stroke-width:1px" >
	4.</text>
	<text x="14" y="0"  style="font-size:12px;font-style:normal;font-weight:normal;fill:#000000;fill-opacity:1;stroke:none;stroke-width:1px" >
	+5 Volt DC</text>
	<text x="14" y="15"  style="font-size:12px;font-style:normal;font-weight:normal;fill:#000000;fill-opacity:1;stroke:none;stroke-width:1px" >
	Ground</text>
	<text x="14" y="30"  style="font-size:12px;font-style:normal;font-weight:normal;fill:#000000;fill-opacity:1;stroke:none;stroke-width:1px" >
	9 Volt AC</text>
	<text x="14" y="45"  style="font-size:12px;font-style:normal;font-weight:normal;fill:#000000;fill-opacity:1;stroke:none;stroke-width:1px" >
	9 Volt AC</text>
</g>
</g>

</svg>