<?xml version="1.0" encoding="UTF-8" standalone="no"?>
<!-- Created with Inkscape (http://www.inkscape.org/) -->

<svg
   xmlns:dc="http://purl.org/dc/elements/1.1/"
   xmlns:cc="http://creativecommons.org/ns#"
   xmlns:rdf="http://www.w3.org/1999/02/22-rdf-syntax-ns#"
   xmlns:svg="http://www.w3.org/2000/svg"
   xmlns="http://www.w3.org/2000/svg"
   xmlns:sodipodi="http://sodipodi.sourceforge.net/DTD/sodipodi-0.dtd"
   xmlns:inkscape="http://www.inkscape.org/namespaces/inkscape"
   version="1.0"
   width="850"
   height="550"
   viewBox="0 0 850 550"
   id="Layer_1"
   xml:space="preserve"
   sodipodi:docname="DIN-6_Diagram.svg"
   inkscape:version="0.92.1 r15371"><metadata
     id="metadata14"><rdf:RDF><cc:Work
         rdf:about=""><dc:format>image/svg+xml</dc:format><dc:type
           rdf:resource="http://purl.org/dc/dcmitype/StillImage" /></cc:Work></rdf:RDF></metadata><sodipodi:namedview
     pagecolor="#ffffff"
     bordercolor="#666666"
     borderopacity="1"
     objecttolerance="10"
     gridtolerance="10"
     guidetolerance="10"
     inkscape:pageopacity="0"
     inkscape:pageshadow="2"
     inkscape:window-width="850"
     inkscape:window-height="550"
     id="namedview12"
     showgrid="false"
     inkscape:cx="0"
     inkscape:cy="0"
     inkscape:window-x="0"
     inkscape:window-y="0"
     inkscape:window-maximized="0"
     inkscape:current-layer="Layer_1" /><defs
     id="defs4755" />
	 
	 <path
     d="m 19.197,217.218 c 0,-109.631 88.876,-198.503 198.499,-198.503 109.625,0 198.5,88.872 198.5,198.503 0,109.624 -88.872,198.503 -198.5,198.503 -109.623,0 -198.499,-88.879 -198.499,-198.503 z"
     style="fill:#ffffff;stroke:#000000;stroke-width:5"
     id="path4738"
     inkscape:connector-curvature="0" />
	 
	 <path
     d="m 217.699,399.097 c -100.448,0 -181.883,-81.436 -181.883,-181.879 0,-87.806 62.234,-161.079 144.996,-178.125 2.492,18.166 18.038,32.176 36.89,32.176 18.837,0 34.386,-14.015 36.875,-32.182 82.766,17.052 144.999,90.325 144.999,178.131 -0.003,100.443 -81.43,181.879 -181.877,181.879 z"
     style="fill:none;stroke:#000000;stroke-width:5"
     id="path4740"
     inkscape:connector-curvature="0" />
	 
	 <!--pin 5-->
	 <path
     d="m 103.738,151.432 c 6.946,-12.029 22.327,-16.146 34.355,-9.202 12.032,6.946 16.152,22.324 9.207,34.354 -6.941,12.023 -22.321,16.148 -34.354,9.202 -12.028,-6.947 -16.15,-22.332 -9.208,-34.354 z"
     style="fill:none;stroke:#000000;stroke-width:5"
     id="path4742"
     inkscape:connector-curvature="0" />
	 <text x="118" y="174" fill="black" font-size="30">5</text>
	 
	 <!--pin 4-->
	 <path
     d="m 147.298,257.864 c 6.946,12.03 2.821,27.409 -9.207,34.353 -12.032,6.947 -27.408,2.825 -34.354,-9.203 -6.941,-12.023 -2.824,-27.405 9.207,-34.352 12.03,-6.944 27.412,-2.821 34.354,9.202 z"
     style="fill:none;stroke:#000000;stroke-width:5"
     id="path4744"
     inkscape:connector-curvature="0" />
	 <text x="118" y="280" fill="black" font-size="30">4</text>
	 
	 <text x= "30" y="475" fill="black" font-size="40">6 pin DIN</text>
	 <text x= "30" y="525" fill="black" font-size="40">IEC serial connector</text>
	 
	 <text x="500" y= "50" fill="black" font-size="40">1.</text>
	 <text x="500" y="100" fill="black" font-size="40">2.</text>
	 <text x="500" y="150" fill="black" font-size="40">3.</text>
	 <text x="500" y="200" fill="black" font-size="40">4.</text>
	 <text x="500" y="250" fill="black" font-size="40">5.</text>
	 <text x="500" y="300" fill="black" font-size="40">6.</text>
	 
	 <text x="550" y= "50" fill="black" font-size="40">SRQ</text>
	 <line x1="550" y1="20" x2="630" y2="20" fill="black" style="stroke:rgb(0,0,0);stroke-width:2" />
	 <text x="550" y="100" fill="black" font-size="40">Ground</text>
	 <text x="550" y="150" fill="black" font-size="40">ATN (Attention)</text>
	 <text x="550" y="200" fill="black" font-size="40">Clock</text>
	 <text x="550" y="250" fill="black" font-size="40">Data</text>
	 <text x="550" y="300" fill="black" font-size="40">Reset</text>
	 <line x1="550" y1="270" x2="640" y2="270" fill="black" style="stroke:rgb(0,0,0);stroke-width:2" />
	 
	 
	 
	 
	 <!--pin 6-->
	 <path
     d="m 239.477,204.642 c 6.946,12.029 2.821,27.409 -9.207,34.353 -12.032,6.947 -27.408,2.825 -34.354,-9.203 -6.941,-12.023 -2.824,-27.404 9.207,-34.352 12.03,-6.945 27.412,-2.822 34.354,9.202 z"
     style="fill:none;stroke:#000000;stroke-width:5"
     id="path4746"
     inkscape:connector-curvature="0" />
	 <text x="210" y="227" fill="black" font-size="30">6</text>
	 
	 <!--pin 3-->
	 <path
     d="m 217.693,298.505 c 13.89,0 25.147,11.262 25.147,25.15 0,13.895 -11.259,25.149 -25.147,25.149 -13.883,0 -25.146,-11.257 -25.146,-25.149 0.001,-13.889 11.263,-25.15 25.146,-25.15 z"
     style="fill:none;stroke:#000000;stroke-width:5"
     id="path4748"
     inkscape:connector-curvature="0" />
	 <text x="211" y="333" fill="black" font-size="30">3</text>
	 
	 <!--pin 2-->
	 <path
     d="m 288.086,257.865 c 6.945,-12.03 22.326,-16.147 34.354,-9.203 12.033,6.947 16.151,22.324 9.206,34.353 -6.941,12.023 -22.321,16.148 -34.354,9.202 -12.026,-6.946 -16.147,-22.33 -9.206,-34.352 z"
     style="fill:none;stroke:#000000;stroke-width:5"
     id="path4750"
     inkscape:connector-curvature="0" />
	 <text x="303" y="279" fill="black" font-size="30">2</text>
	 
	 <!--pin 1-->
	 <path
     d="m 331.646,151.431 c 6.946,12.03 2.821,27.408 -9.208,34.354 -12.032,6.946 -27.409,2.825 -34.354,-9.203 -6.94,-12.022 -2.823,-27.405 9.208,-34.352 12.028,-6.945 27.412,-2.823 34.354,9.201 z"
     style="fill:none;stroke:#000000;stroke-width:5"
     id="path4752"
     inkscape:connector-curvature="0" />
	 <text x="303" y="174" fill="black" font-size="30">1</text>
	 
	 </svg>