<svg  xmlns="http://www.w3.org/2000/svg" xmlns:xlink="http://www.w3.org/1999/xlink"
   width="470"
   height="610"
   viewBox="0 0 470 610"

>
	<defs>
		<g id="ends" stroke-width="6">
			<line x1="0"  y1="7"  x2="0" y2="50" style="stroke:#000000;"/>
			<line x1="0"  y1="60"  x2="0" y2="103" style="stroke:#000000;"/>
		</g>
		<g id="mids_slot" stroke-width="6">
			<line x1="0"  y1="10"  x2="0" y2="100" style="stroke:#000000;"/>
		</g>
		<g id="contact" stroke-width="6">
			<line x1="6"  y1="10"  x2="6" y2="44" style="stroke:yellow;"/>
			<line x1="13"  y1="10"  x2="13" y2="44" style="stroke:yellow;"/>
			<line x1="13"  y1="66"  x2="13" y2="100" style="stroke:yellow;"/>
			<line x1="6"  y1="66"  x2="6" y2="100" style="stroke:yellow;"/>
	
			<line x1="0"  y1="10"  x2="0" y2="40" style="stroke:#000000;"/>
			<line x1="0"  y1="70"  x2="0" y2="100" style="stroke:#000000;"/>

			<line x1="0"  y1="10"  x2="20" y2="10" style="stroke:#000000;"/>
			<line x1="0"  y1="100"  x2="20" y2="100" style="stroke:#000000;"/>
		</g>
		<g id="slot" stroke-width="6">
			<line x1="0"  y1="10"  x2="0" y2="40" style="stroke:#000000;"/>
			<line x1="0"  y1="70"  x2="0" y2="100" style="stroke:#000000;"/>

			<line x1="0"  y1="10"  x2="20" y2="10" style="stroke:#000000;"/>
			<line x1="0"  y1="100"  x2="20" y2="100" style="stroke:#000000;"/>

			<line x1="10"  y1="14"  x2="10" y2="96" style="stroke:#000000;"/>
		</g>
	</defs>
  
	<use xlink:href="#ends" x="10" y="30" />
	<use xlink:href="#contact" x= "10" y="30" /> <!-- pin01/A-->
	<text x="14" y="35" fill="black" font-size="12">1</text>
	<text x="15" y="145" fill="black" font-size="12">A</text>
	
	<use xlink:href="#contact" x= "30" y="30" /> <!-- pin02/B-->
	<text x="34" y="35" fill="black" font-size="12">2</text>
	<text x="35" y="145" fill="black" font-size="12">B</text>
	
	<use xlink:href="#contact" x= "50" y="30" /> <!-- pin03/C-->
	<text x="54" y="35" fill="black" font-size="12">3</text>
	<text x="55" y="145" fill="black" font-size="12">C</text>
	
	<use xlink:href="#contact" x= "70" y="30" /> <!-- pin04/D-->
	<text x="74" y="35" fill="black" font-size="12">4</text>
	<text x="75" y="145" fill="black" font-size="12">D</text>
	
	<use xlink:href="#contact" x= "90" y="30" /> <!-- pin05/E-->
	<text x="94" y="35" fill="black" font-size="12">5</text>
	<text x="95" y="145" fill="black" font-size="12">E</text>
	
	<use xlink:href="#contact" x="110" y="30" /> <!-- pin06/F-->
	<text x="114" y="35" fill="black" font-size="12">6</text>
	<text x="115" y="145" fill="black" font-size="12">F</text>
	
	<use xlink:href="#contact" x="130" y="30" /> <!-- pin07/H-->
	<text x="134" y="35" fill="black" font-size="12">7</text>
	<text x="135" y="145" fill="black" font-size="12">H</text>
	
	<use xlink:href="#contact" x="150" y="30" /> <!-- pin08/J-->
	<text x="154" y="35" fill="black" font-size="12">8</text>
	<text x="155" y="145" fill="black" font-size="12">J</text>
	
	<use xlink:href="#contact" x="170" y="30" /> <!-- pin09/K-->
	<text x="174" y="35" fill="black" font-size="12">9</text>
	<text x="175" y="145" fill="black" font-size="12">K</text>
	
	<use xlink:href="#contact" x="190" y="30" /> <!-- pin10/L-->
	<text x="194" y="35" fill="black" font-size="12">10</text>
	<text x="195" y="145" fill="black" font-size="12">L</text>
	
	<use xlink:href="#contact" x="210" y="30" /> <!-- pin11/M-->
	<text x="214" y="35" fill="black" font-size="12">11</text>
	<text x="215" y="145" fill="black" font-size="12">M</text>
	
	<use xlink:href="#contact" x="230" y="30" /> <!-- pin12/N-->
	<text x="234" y="35" fill="black" font-size="12">12</text>
	<text x="235" y="145" fill="black" font-size="12">N</text>
	
	<use xlink:href="#contact" x="250" y="30" /> <!-- pin13/P-->
	<text x="254" y="35" fill="black" font-size="12">13</text>
	<text x="255" y="145" fill="black" font-size="12">P</text>
	
	<use xlink:href="#contact" x="270" y="30" /> <!-- pin14/R-->
	<text x="275" y="35" fill="black" font-size="12">14</text>
	<text x="275" y="145" fill="black" font-size="12">R</text>
	
	<use xlink:href="#contact" x="290" y="30" /> <!-- pin15/S-->
	<text x="295" y="35" fill="black" font-size="12">15</text>
	<text x="295" y="145" fill="black" font-size="12">S</text>
	
	<use xlink:href="#contact" x="310" y="30" /> <!-- pin16/T-->
	<text x="315" y="35" fill="black" font-size="12">16</text>
	<text x="315" y="145" fill="black" font-size="12">T</text>
	
	<use xlink:href="#contact" x="330" y="30" /> <!-- pin17/U-->
	<text x="335" y="35" fill="black" font-size="12">17</text>
	<text x="335" y="145" fill="black" font-size="12">U</text>
	
	<use xlink:href="#contact" x="350" y="30" /> <!-- pin18/V-->
	<text x="355" y="35" fill="black" font-size="12">18</text>
	<text x="355" y="145" fill="black" font-size="12">V</text>
	
	<use xlink:href="#contact" x="370" y="30" /> <!-- pin19/W-->
	<text x="375" y="35" fill="black" font-size="12">19</text>
	<text x="375" y="145" fill="black" font-size="12">W</text>
	
	<use xlink:href="#contact" x="390" y="30" /> <!-- pin20/X-->
	<text x="395" y="35" fill="black" font-size="12">20</text>
	<text x="395" y="145" fill="black" font-size="12">X</text>
	
	<use xlink:href="#contact" x="410" y="30" /> <!-- pin21/Y-->
	<text x="415" y="35" fill="black" font-size="12">21</text>
	<text x="415" y="145" fill="black" font-size="12">Y</text>
	
	<use xlink:href="#contact" x="430" y="30" /> <!-- pin22/Z-->
	<text x="435" y="35" fill="black" font-size="12">22</text>
	<text x="435" y="145" fill="black" font-size="12">Z</text>
	
	<use xlink:href="#ends" x="450" y="30" />
			
	<text x="20" y="180" fill="black" font-size="20">1.</text>
	<text x="20" y="200" fill="black" font-size="20">2.</text>
	<text x="20" y="220" fill="black" font-size="20">3.</text>
	<text x="20" y="240" fill="black" font-size="20">4.</text>
	<text x="20" y="260" fill="black" font-size="20">5.</text>
	<text x="20" y="280" fill="black" font-size="20">6.</text>
	<text x="20" y="300" fill="black" font-size="20">7.</text>
	<text x="20" y="320" fill="black" font-size="20">8.</text>
	<text x="20" y="340" fill="black" font-size="20">9.</text>
	<text x= "10" y="360" fill="black" font-size="20">10.</text>
	<text x= "10" y="380" fill="black" font-size="20">11.</text>
	<text x= "10" y="400" fill="black" font-size="20">12.</text>
	<text x= "10" y="420" fill="black" font-size="20">13.</text>
	<text x= "10" y="440" fill="black" font-size="20">14.</text>
	<text x= "10" y="460" fill="black" font-size="20">15.</text>
	<text x= "10" y="480" fill="black" font-size="20">16.</text>
	<text x= "10" y="500" fill="black" font-size="20">17.</text>
	<text x= "10" y="520" fill="black" font-size="20">18.</text>
	<text x= "10" y="540" fill="black" font-size="20">19.</text>
	<text x= "10" y="560" fill="black" font-size="20">20.</text>
	<text x= "10" y="580" fill="black" font-size="20">21.</text>
	<text x= "10" y="600" fill="black" font-size="20">22.</text>
	 
	<text x="40" y="180" fill="black" font-size="20">Ground</text>
	<text x="40" y="200" fill="black" font-size="20">D0</text>
	<text x="40" y="220" fill="black" font-size="20">D1</text>
	<text x="40" y="240" fill="black" font-size="20">D2</text>
	<text x="40" y="260" fill="black" font-size="20">D3</text>
	<text x="40" y="280" fill="black" font-size="20">D4</text>
	<text x="40" y="300" fill="black" font-size="20">D5</text>
	<text x="40" y="320" fill="black" font-size="20">D6</text>
	<text x="40" y="340" fill="black" font-size="20">D7</text>
	<text x="40" y="360" fill="black" font-size="20">BLK1 ($2000 - $3FFF)</text>
	<line x1="40" y1="345" x2="92" y2="345" fill="black" style="stroke:rgb(0,0,0);stroke-width:1" />
	<text x="40" y="380" fill="black" font-size="20">BLK2 ($4000 - $5FFF)</text>
	<line x1="40" y1="365" x2="92" y2="365" fill="black" style="stroke:rgb(0,0,0);stroke-width:1" />
	<text x="40" y="400" fill="black" font-size="20">BLK3 ($6000 - $7FFF)</text>
	<line x1="40" y1="385" x2="92" y2="385" fill="black" style="stroke:rgb(0,0,0);stroke-width:1" />
	<text x="40" y="420" fill="black" font-size="20">BLK5 ($A000 - $BFFF)</text>
	<line x1="40" y1="405" x2="92" y2="405" fill="black" style="stroke:rgb(0,0,0);stroke-width:1" />
	<text x="40" y="440" fill="black" font-size="20">RAM1 ($0400 - $07FF)</text>
	<line x1="40" y1="425" x2="95" y2="425" fill="black" style="stroke:rgb(0,0,0);stroke-width:1" />
	<text x="40" y="460" fill="black" font-size="20">RAM2 ($0800 - $0BFF)</text>
	<line x1="40" y1="445" x2="95" y2="445" fill="black" style="stroke:rgb(0,0,0);stroke-width:1" />
	<text x="40" y="480" fill="black" font-size="20">RAM3 ($0C00 - $0FFF)</text>
	<line x1="40" y1="465" x2="95" y2="465" fill="black" style="stroke:rgb(0,0,0);stroke-width:1" />
	<text x="40" y="500" fill="black" font-size="20">VR/W (VIC)</text>
	<line x1="73" y1="485" x2="93" y2="485" fill="black" style="stroke:rgb(0,0,0);stroke-width:1" />
	<text x="40" y="520" fill="black" font-size="20">CR/W (CPU)</text>
	<line x1="72" y1="505" x2="92" y2="505" fill="black" style="stroke:rgb(0,0,0);stroke-width:1" />
	<text x="40" y="540" fill="black" font-size="20">IRQ</text>
	<text x="40" y="560" fill="black" font-size="20">NC</text>
	<text x="40" y="580" fill="black" font-size="20">+5 Volt</text>
	<text x="40" y="600" fill="black" font-size="20">Ground</text>

	<text x="250" y="180" fill="black" font-size="20">A.</text>
	<text x="250" y="200" fill="black" font-size="20">B.</text>
	<text x="250" y="220" fill="black" font-size="20">C.</text>
	<text x="250" y="240" fill="black" font-size="20">D.</text>
	<text x="250" y="260" fill="black" font-size="20">E.</text>
	<text x="250" y="280" fill="black" font-size="20">F.</text>
	<text x="250" y="300" fill="black" font-size="20">H.</text>
	<text x="250" y="320" fill="black" font-size="20">J.</text>
	<text x="250" y="340" fill="black" font-size="20">K.</text>
	<text x="250" y="360" fill="black" font-size="20">L.</text>
	<text x="250" y="380" fill="black" font-size="20">M.</text>
	<text x="250" y="400" fill="black" font-size="20">N.</text>
	<text x="250" y="420" fill="black" font-size="20">P.</text>
	<text x="250" y="440" fill="black" font-size="20">R.</text>
	<text x="250" y="460" fill="black" font-size="20">S.</text>
	<text x="250" y="480" fill="black" font-size="20">T.</text>
	<text x="250" y="500" fill="black" font-size="20">U.</text>
	<text x="250" y="520" fill="black" font-size="20">V.</text>
	<text x="250" y="540" fill="black" font-size="20">W.</text>
	<text x="250" y="560" fill="black" font-size="20">X.</text>
	<text x="250" y="580" fill="black" font-size="20">Y.</text>
	<text x="250" y="600" fill="black" font-size="20">Z.</text>
	 
	<text x="280" y="180" fill="black" font-size="20">Ground</text>
	<text x="280" y="200" fill="black" font-size="20">A0</text>
	<text x="280" y="220" fill="black" font-size="20">A1</text>
	<text x="280" y="240" fill="black" font-size="20">A2</text>
	<text x="280" y="260" fill="black" font-size="20">A3</text>
	<text x="280" y="280" fill="black" font-size="20">A4</text>
	<text x="280" y="300" fill="black" font-size="20">A5</text>
	<text x="280" y="320" fill="black" font-size="20">A6</text>
	<text x="280" y="340" fill="black" font-size="20">A7</text>
	<text x="280" y="360" fill="black" font-size="20">A8</text>
	<text x="280" y="380" fill="black" font-size="20">A9</text>
	<text x="280" y="400" fill="black" font-size="20">A10</text>
	<text x="280" y="420" fill="black" font-size="20">A11</text>
	<text x="280" y="440" fill="black" font-size="20">A12</text>
	<text x="280" y="460" fill="black" font-size="20">A13</text>
	<text x="280" y="480" fill="black" font-size="20">I/O2 ($9600 - $9BFF)</text>
	<text x="280" y="500" fill="black" font-size="20">I/O3 ($9C00 - $9FFF)</text>
	<text x="280" y="520" fill="black" font-size="20">ϕ2</text>
	<text x="280" y="540" fill="black" font-size="20">NMI</text>
	<line x1="280" y1="525" x2="320" y2="525" fill="black" style="stroke:rgb(0,0,0);stroke-width:1" />
	<text x="280" y="560" fill="black" font-size="20">RESET</text>
	<line x1="280" y1="545" x2="342" y2="545" fill="black" style="stroke:rgb(0,0,0);stroke-width:1" />
	<text x="280" y="580" fill="black" font-size="20">NC</text>
	<text x="280" y="600" fill="black" font-size="20">Ground</text>
			
</svg>