<?xml version="1.0" encoding="UTF-8" standalone="no"?>
<!-- Generator: Adobe Illustrator 15.0.0, SVG Export Plug-In . SVG Version: 6.00 Build 0)  -->

<svg
   xmlns:dc="http://purl.org/dc/elements/1.1/"
   xmlns:cc="http://creativecommons.org/ns#"
   xmlns:rdf="http://www.w3.org/1999/02/22-rdf-syntax-ns#"
   xmlns:svg="http://www.w3.org/2000/svg"
   xmlns="http://www.w3.org/2000/svg"
   xmlns:sodipodi="http://sodipodi.sourceforge.net/DTD/sodipodi-0.dtd"
   xmlns:inkscape="http://www.inkscape.org/namespaces/inkscape"
   version="1.1"
   id="Layer_1"
   x="0px"
   y="0px"
   width="600px"
   height="455px"
   viewBox="0 0 600 455"
   enable-background="new 0 0 600 455"
   xml:space="preserve"
   inkscape:version="0.92.1 r15371"><metadata
     id="metadata3724"><rdf:RDF><cc:Work
         rdf:about=""><dc:format>image/svg+xml</dc:format><dc:type
           rdf:resource="http://purl.org/dc/dcmitype/StillImage" /></cc:Work></rdf:RDF></metadata><defs
     id="defs3722" /><sodipodi:namedview
     bordercolor="#666666"
     borderopacity="1"
     objecttolerance="10"
     gridtolerance="10"
     guidetolerance="10"
     inkscape:pageopacity="0"
     inkscape:pageshadow="2"
     id="namedview3720"
     showgrid="false"
     inkscape:window-maximized="1"
     inkscape:current-layer="Layer_1" />
	 
	 <g transform="scale(0.5)">
	 <g transform="translate(10 10)">
	 
	 <!-- Shield outer ring --><path
     id="path4784"
     d="m 19.197,217.218 c 0,-109.631 88.876,-198.503 198.499,-198.503 109.627,0 198.5,88.872 198.5,198.503 0,109.624 -88.872,198.504 -198.5,198.504 -109.623,0 -198.499,-88.879 -198.499,-198.504 z"
     inkscape:connector-curvature="0"
     style="fill:#ffffff;stroke:#000000;stroke-width:5" />

	 <!--pin 1-->
	 <path
     id="path4786"
     d="m 298.979,217.222 c 0,-13.894 11.262,-25.149 25.15,-25.149 13.895,0 25.149,11.258 25.149,25.149 0,13.883 -11.257,25.146 -25.149,25.146 -13.889,-0.001 -25.15,-11.263 -25.15,-25.146 z"
     inkscape:connector-curvature="0"
     style="fill:none;stroke:#000000;stroke-width:5" />
	 <text x="317" y="227" fill="black" font-size="30">1</text>
	 
	 <!--pin 3-->
	 <path
     id="path4788"
     d="m 86.112,217.222 c 0,-13.894 11.263,-25.149 25.151,-25.149 13.895,0 25.151,11.258 25.151,25.149 0,13.883 -11.257,25.146 -25.151,25.146 -13.889,-0.001 -25.151,-11.263 -25.151,-25.146 z"
     inkscape:connector-curvature="0"
     style="fill:none;stroke:#000000;stroke-width:5" />
	 <text x="105" y="227" fill="black" font-size="30">3</text>
	 
	 <!--pin 5-->
	 <path
     id="path4792"
     d="m 124.657,310.252 c -9.82,-9.819 -9.82,-25.746 0.005,-35.565 9.82,-9.826 25.739,-9.826 35.565,0 9.814,9.814 9.82,25.74 -0.005,35.561 -9.82,9.824 -25.745,9.824 -35.565,0.004 z"
     inkscape:connector-curvature="0"
     style="fill:none;stroke:#000000;stroke-width:5" />
	 <text x="135" y="303" fill="black" font-size="30">5</text>
	 	 
	 <!--pin 2-->
	 <path
     id="path4794"
     d="m 217.696,348.78 c -13.888,0 -25.149,-11.262 -25.145,-25.15 -0.005,-13.894 11.251,-25.15 25.148,-25.15 13.878,0 25.143,11.257 25.143,25.15 0,13.888 -11.257,25.15 -25.146,25.15 z"
     inkscape:connector-curvature="0"
     style="fill:none;stroke:#000000;stroke-width:5" />
	 <text x="211" y="334" fill="black" font-size="30">2</text>
	 	 
	 <!--pin 4-->
	 <path
     id="path4798"
     d="m 310.726,310.235 c -9.814,9.821 -25.745,9.821 -35.562,-0.005 -9.831,-9.82 -9.831,-25.739 -0.005,-35.565 9.814,-9.814 25.739,-9.821 35.561,0.005 9.826,9.821 9.826,25.746 0.006,35.565 z"
     inkscape:connector-curvature="0"
     style="fill:none;stroke:#000000;stroke-width:5" />
	 <text x="286" y="303" fill="black" font-size="30">4</text>
 	 
	 <!--internal shield-->
	 <path
     id="path4802"
     d="m 217.699,399.098 c -100.448,0 -181.884,-81.437 -181.884,-181.88 0,-87.806 62.234,-161.078 144.996,-178.124 2.492,18.165 18.038,32.176 36.891,32.176 18.839,0 34.386,-14.016 36.875,-32.183 82.764,17.053 144.998,90.325 144.998,178.131 -10e-4,100.444 -81.429,181.88 -181.876,181.88 z"
     inkscape:connector-curvature="0"
     style="fill:none;stroke:#000000;stroke-width:5" />
	 </g>
	 </g>
	 <g transform="translate(240 50)">
	 <g transform="scale(1.5)">
	 <text x="0" y="00" fill="black" font-size="20">1.</text>	
	 <text x="0" y="20" fill="black" font-size="20">2.</text>	
	 <text x="0" y="40" fill="black" font-size="20">3.</text>	
	 <text x="0" y="60" fill="black" font-size="20">4.</text>	
	 <text x="0" y="80" fill="black" font-size="20">5.</text>	
	 
	 <text x="20" y="00" fill="black" font-size="20">+6 Volt DC 10mA </text>	
	 <text x="20" y="20" fill="black" font-size="20">Ground</text>	
	 <text x="20" y="40" fill="black" font-size="20">Audio</text>	
	 <text x="20" y="60" fill="black" font-size="20">Video Low</text>	
	 <text x="20" y="80" fill="black" font-size="20">Video High</text>	
	 
	 </g>
	 </g>
	 
	 
	 
	 
	 
	 
	 </svg>